<svg width="237" height="126" viewBox="0 0 237 126" fill="none" xmlns="http://www.w3.org/2000/svg">
<path opacity="0.2" fill-rule="evenodd" clip-rule="evenodd" d="M120.458 125.479C130.889 125.479 139.346 117.022 139.346 106.591C139.346 96.159 130.889 87.7025 120.458 87.7025L97.3423 87.7025L97.3423 125.479L120.458 125.479ZM188.017 106.591C188.017 117.022 179.56 125.479 169.129 125.479L164.901 125.479C154.47 125.479 146.013 117.022 146.013 106.591C146.013 96.159 154.47 87.7025 164.901 87.7025L169.129 87.7025C179.56 87.7025 188.017 96.159 188.017 106.591ZM236.688 125.479L194.684 125.479C194.684 104.616 211.597 87.7025 232.461 87.7025L236.688 87.7025L236.688 125.479ZM236.688 81.6778L194.684 81.6778L194.684 43.9012L236.688 43.9013L236.688 81.6778ZM198.911 37.7766C219.775 37.7766 236.688 20.8634 236.688 -2.29478e-05L194.684 -2.66199e-05L194.684 37.7766L198.911 37.7766ZM150.24 81.6778C171.104 81.6778 188.017 64.7647 188.017 43.9012L146.013 43.9012L146.013 81.6778L150.24 81.6778ZM188.017 37.7766L146.013 37.7766C146.013 16.9131 162.926 -2.17668e-05 183.79 -1.99429e-05L188.017 -1.95733e-05L188.017 37.7766ZM139.346 62.7895C139.346 73.2212 130.889 81.6778 120.458 81.6778L116.231 81.6778C105.799 81.6778 97.3423 73.2212 97.3423 62.7895C97.3423 52.3578 105.799 43.9012 116.231 43.9012L120.458 43.9012C130.889 43.9012 139.346 52.3578 139.346 62.7895ZM97.3423 37.7766L139.346 37.7766L139.346 -3.14577e-05L97.3423 -3.51298e-05L97.3423 37.7766ZM90.6748 125.479L48.6711 125.479L48.6711 87.7024L90.6748 87.7024L90.6748 125.479ZM48.6711 81.6778L90.6748 81.6778C90.6748 60.8144 73.7616 43.9012 52.8982 43.9012L48.6711 43.9012L48.6711 81.6778ZM90.6748 37.8766L48.6711 37.8766C48.6711 17.0132 65.5843 0.100014 86.4477 0.100016L90.6748 0.100016L90.6748 37.8766ZM18.8883 125.479L42.0037 125.479L42.0037 87.7024L18.8883 87.7024C8.45656 87.7024 -1.27254e-05 96.159 -1.36373e-05 106.591C-1.45493e-05 117.022 8.45657 125.479 18.8883 125.479ZM42.0037 62.7895C42.0037 73.2212 33.5471 81.6778 23.1154 81.6778L18.8883 81.6778C8.45658 81.6778 -1.07201e-05 73.2212 -9.8081e-06 62.7895C-8.89613e-06 52.3578 8.45657 43.9012 18.8883 43.9012L23.1154 43.9012C33.5471 43.9012 42.0037 52.3578 42.0037 62.7895ZM23.1153 37.7766C33.5471 37.7766 42.0037 29.32 42.0037 18.8883C42.0037 8.45655 33.5471 -2.54481e-05 23.1154 -2.63601e-05L18.8883 -2.67296e-05C8.45655 -2.76416e-05 -2.03169e-05 8.45655 -2.12289e-05 18.8883C-2.21409e-05 29.32 8.45657 37.7766 18.8883 37.7766L23.1153 37.7766Z" fill="url(#paint0_linear)"/>
<defs>
<linearGradient id="paint0_linear" x1="387.737" y1="203.869" x2="226.66" y2="-69.6404" gradientUnits="userSpaceOnUse">
<stop stop-color="white"/>
<stop offset="1" stop-color="white" stop-opacity="0"/>
</linearGradient>
</defs>
</svg>
