<svg width="29" height="27" viewBox="0 0 29 27" fill="none" xmlns="http://www.w3.org/2000/svg">
<path d="M25.1296 27H7.72201C6.66471 27 5.66406 26.7992 4.72005 26.3975C3.78863 25.9833 2.97049 25.431 2.26563 24.7406C1.57335 24.0377 1.01953 23.2218 0.604167 22.2929C0.201389 21.3515 0 20.3473 0 19.2803C0 18.1381 0.232856 17.0711 0.698568 16.0795C1.16428 15.0753 1.80621 14.2155 2.62435 13.5C1.80621 12.7971 1.16428 11.9498 0.698568 10.9582C0.232856 9.96653 0 8.88703 0 7.71967C0 6.66527 0.201389 5.66736 0.604167 4.72594C1.01953 3.78452 1.57335 2.96862 2.26563 2.27824C2.97049 1.57531 3.78863 1.02301 4.72005 0.621339C5.66406 0.207113 6.66471 0 7.72201 0H25.1296V3.85983H7.72201C7.19336 3.85983 6.69618 3.96025 6.23047 4.16109C5.76476 4.36192 5.35569 4.63808 5.00326 4.98954C4.65082 5.341 4.37392 5.75523 4.17253 6.23222C3.97114 6.69665 3.87044 7.19247 3.87044 7.71967C3.87044 8.24686 3.96484 8.74268 4.15365 9.20711C4.35503 9.659 4.61936 10.0607 4.94661 10.4121C5.28646 10.751 5.67665 11.0272 6.11719 11.2406C6.57031 11.454 7.0549 11.5669 7.57096 11.5795H13.5371V15.4393H7.72201C7.19336 15.4393 6.69618 15.5397 6.23047 15.7406C5.76476 15.9414 5.35569 16.2176 5.00326 16.569C4.65082 16.9205 4.37392 17.3285 4.17253 17.7929C3.97114 18.2573 3.87044 18.7531 3.87044 19.2803C3.87044 19.8075 3.97114 20.3096 4.17253 20.7866C4.37392 21.251 4.65082 21.659 5.00326 22.0105C5.35569 22.3619 5.76476 22.6381 6.23047 22.8389C6.69618 23.0397 7.19336 23.1402 7.72201 23.1402H21.2591V15.4393H17.3887V11.5795H29V15.4393H25.1296V27Z" fill="white"/>
</svg>
