<svg width="230" height="64" viewBox="0 0 230 64" fill="none" xmlns="http://www.w3.org/2000/svg">
<path d="M8 24H4.79688V9.59375H0V6.40625H4.79688V0H8V6.40625H19.2031V9.59375H8V24Z" fill="white"/>
<path d="M26.8125 2.40625C26.8125 2.73958 26.75 3.05208 26.625 3.34375C26.5 3.625 26.3281 3.875 26.1094 4.09375C25.8906 4.3125 25.6354 4.48438 25.3438 4.60938C25.0521 4.73438 24.7448 4.79688 24.4219 4.79688C24.0885 4.79688 23.776 4.73438 23.4844 4.60938C23.1927 4.48438 22.9375 4.3125 22.7188 4.09375C22.5 3.875 22.3281 3.625 22.2031 3.34375C22.0781 3.05208 22.0156 2.73958 22.0156 2.40625C22.0156 2.08333 22.0781 1.77604 22.2031 1.48438C22.3281 1.19271 22.5 0.9375 22.7188 0.71875C22.9375 0.5 23.1927 0.328125 23.4844 0.203125C23.776 0.0677083 24.0885 0 24.4219 0C24.7448 0 25.0521 0.0677083 25.3438 0.203125C25.6354 0.328125 25.8906 0.5 26.1094 0.71875C26.3281 0.9375 26.5 1.19271 26.625 1.48438C26.75 1.77604 26.8125 2.08333 26.8125 2.40625ZM26.0156 24H22.8125V6.40625H26.0156V24Z" fill="white"/>
<path d="M35.0156 24H31.8125V6.40625H48.6875C49.8958 6.40625 51.0312 6.64062 52.0938 7.10938C53.1562 7.56771 54.0781 8.19792 54.8594 9C55.651 9.79167 56.276 10.724 56.7344 11.7969C57.1927 12.8594 57.4219 13.9948 57.4219 15.2031V24H54.2188V15.2031C54.2188 14.4323 54.0729 13.7083 53.7812 13.0312C53.4896 12.3542 53.0938 11.7656 52.5938 11.2656C52.0938 10.7552 51.5052 10.3542 50.8281 10.0625C50.1615 9.76042 49.4479 9.60417 48.6875 9.59375H46.2188V24H43.0156V9.59375H35.0156V24Z" fill="white"/>
<path fill-rule="evenodd" clip-rule="evenodd" d="M79.1 6.40625H61.5V9.60625H79.1V6.40625ZM79.1 13.7031H61.5V16.9031H79.1V13.7031ZM61.5156 21H79.1156V24.2H61.5156V21Z" fill="white"/>
<path fill-rule="evenodd" clip-rule="evenodd" d="M229.116 45.3063H211.516V48.5063H229.116V45.3063ZM229.116 52.6031H211.516V55.8031H229.116V52.6031ZM211.531 59.9H229.131V63.1H211.531V59.9Z" fill="white"/>
<path d="M116.141 24H101.734C100.859 24 100.031 23.8333 99.25 23.5C98.4792 23.1562 97.8021 22.6979 97.2188 22.125C96.6458 21.5417 96.1875 20.8646 95.8438 20.0938C95.5104 19.3125 95.3438 18.4792 95.3438 17.5938C95.3438 16.6458 95.5365 15.7604 95.9219 14.9375C96.3073 14.1042 96.8385 13.3906 97.5156 12.7969C96.8385 12.2135 96.3073 11.5104 95.9219 10.6875C95.5365 9.86458 95.3438 8.96875 95.3438 8C95.3438 7.125 95.5104 6.29688 95.8438 5.51562C96.1875 4.73438 96.6458 4.05729 97.2188 3.48438C97.8021 2.90104 98.4792 2.44271 99.25 2.10938C100.031 1.76562 100.859 1.59375 101.734 1.59375H116.141V4.79688H101.734C101.297 4.79688 100.885 4.88021 100.5 5.04688C100.115 5.21354 99.776 5.44271 99.4844 5.73438C99.1927 6.02604 98.9635 6.36979 98.7969 6.76562C98.6302 7.15104 98.5469 7.5625 98.5469 8C98.5469 8.4375 98.625 8.84896 98.7812 9.23438C98.9479 9.60938 99.1667 9.94271 99.4375 10.2344C99.7188 10.5156 100.042 10.7448 100.406 10.9219C100.781 11.099 101.182 11.1927 101.609 11.2031H106.547V14.4062H101.734C101.297 14.4062 100.885 14.4896 100.5 14.6562C100.115 14.8229 99.776 15.0521 99.4844 15.3438C99.1927 15.6354 98.9635 15.974 98.7969 16.3594C98.6302 16.7448 98.5469 17.1562 98.5469 17.5938C98.5469 18.0312 98.6302 18.4479 98.7969 18.8438C98.9635 19.2292 99.1927 19.5677 99.4844 19.8594C99.776 20.151 100.115 20.3802 100.5 20.5469C100.885 20.7135 101.297 20.7969 101.734 20.7969H112.938V14.4062H109.734V11.2031H119.344V14.4062H116.141V24Z" fill="#DC1637"/>
<path d="M21.8594 63H5.85938C5.07812 63 4.34896 62.8542 3.67188 62.5625C2.99479 62.2708 2.40104 61.875 1.89062 61.375C1.38021 60.8646 0.979167 60.2708 0.6875 59.5938C0.395833 58.9062 0.25 58.1771 0.25 57.4062C0.25 56.625 0.395833 55.8958 0.6875 55.2188C0.979167 54.5417 1.38021 53.9479 1.89062 53.4375C2.40104 52.9271 2.99479 52.526 3.67188 52.2344C4.34896 51.9427 5.07812 51.7969 5.85938 51.7969H17.0469V55H5.85938C5.52604 55 5.21354 55.0677 4.92188 55.2031C4.63021 55.3281 4.375 55.5 4.15625 55.7188C3.9375 55.9375 3.76562 56.1927 3.64062 56.4844C3.51562 56.776 3.45312 57.0833 3.45312 57.4062C3.45312 57.7396 3.51562 58.0521 3.64062 58.3438C3.76562 58.625 3.9375 58.875 4.15625 59.0938C4.375 59.3125 4.63021 59.4844 4.92188 59.6094C5.21354 59.7344 5.52604 59.7969 5.85938 59.7969H18.6562V51C18.6562 50.6771 18.5885 50.3698 18.4531 50.0781C18.3281 49.7865 18.1562 49.5312 17.9375 49.3125C17.7188 49.0938 17.4635 48.9219 17.1719 48.7969C16.8802 48.6615 16.5729 48.5938 16.25 48.5938H3.45312V45.4062H16.25C17.0312 45.4062 17.7604 45.5521 18.4375 45.8438C19.1146 46.1354 19.7083 46.5365 20.2188 47.0469C20.7292 47.5469 21.1302 48.1354 21.4219 48.8125C21.7135 49.4896 21.8594 50.2188 21.8594 51V63Z" fill="white"/>
<path d="M33 63H29.7969V48.5938H25V45.4062H29.7969V39H33V45.4062H44.2031V48.5938H33V63Z" fill="white"/>
<path d="M53 63H49.7969V48.5938H45V45.4062H49.7969V39H53V45.4062H64.2031V48.5938H53V63Z" fill="white"/>
<path d="M87.2969 51C87.2969 51.7812 87.151 52.5104 86.8594 53.1875C86.5677 53.8646 86.1667 54.4583 85.6562 54.9688C85.1562 55.4688 84.5625 55.8646 83.875 56.1562C83.1979 56.4479 82.474 56.5938 81.7031 56.5938H69.4375C69.6667 57.0625 69.9531 57.4948 70.2969 57.8906C70.6406 58.2865 71.026 58.625 71.4531 58.9062C71.8802 59.1875 72.3438 59.4062 72.8438 59.5625C73.3542 59.7188 73.8854 59.7969 74.4375 59.7969H84.9062V63H74.4375C73.2292 62.9896 72.0938 62.7552 71.0312 62.2969C69.9688 61.8281 69.0417 61.1979 68.25 60.4062C67.4688 59.6042 66.849 58.6719 66.3906 57.6094C65.9323 56.5469 65.7031 55.4115 65.7031 54.2031C65.7031 52.9948 65.9323 51.8594 66.3906 50.7969C66.849 49.7344 67.4688 48.8073 68.25 48.0156C69.0417 47.2135 69.9688 46.5833 71.0312 46.125C72.0938 45.6562 73.2292 45.4167 74.4375 45.4062H81.7031C82.474 45.4062 83.1979 45.5521 83.875 45.8438C84.5625 46.1354 85.1562 46.5365 85.6562 47.0469C86.1667 47.5469 86.5677 48.1354 86.8594 48.8125C87.151 49.4896 87.2969 50.2188 87.2969 51ZM81.7031 53.4062C82.026 53.4062 82.3333 53.3438 82.625 53.2188C82.9167 53.0938 83.1719 52.9219 83.3906 52.7031C83.6094 52.4844 83.7812 52.2292 83.9062 51.9375C84.0312 51.6458 84.0938 51.3333 84.0938 51C84.0938 50.6771 84.0312 50.3698 83.9062 50.0781C83.7812 49.7865 83.6094 49.5312 83.3906 49.3125C83.1719 49.0938 82.9167 48.9219 82.625 48.7969C82.3333 48.6615 82.026 48.5938 81.7031 48.5938H74.4375C73.7292 48.5938 73.0625 48.7188 72.4375 48.9688C71.8229 49.2188 71.2708 49.5625 70.7812 50C70.3021 50.4271 69.901 50.9375 69.5781 51.5312C69.2656 52.1146 69.0625 52.7396 68.9688 53.4062H81.7031Z" fill="white"/>
<path d="M94.0156 63H90.8125V45.4062H102.812C104.021 45.4062 105.156 45.6406 106.219 46.1094C107.281 46.5677 108.208 47.1979 109 48C109.792 48.7917 110.417 49.724 110.875 50.7969C111.333 51.8594 111.562 52.9948 111.562 54.2031V63H108.359V54.2031C108.359 53.4323 108.214 52.7083 107.922 52.0312C107.63 51.3542 107.234 50.7656 106.734 50.2656C106.234 49.7552 105.646 49.3542 104.969 49.0625C104.302 48.7604 103.583 48.6042 102.812 48.5938H94.0156V63Z" fill="white"/>
<path d="M136.438 63H133.234V48.5938H124.438C123.667 48.5938 122.943 48.7448 122.266 49.0469C121.599 49.3385 121.016 49.7396 120.516 50.25C120.016 50.75 119.62 51.3438 119.328 52.0312C119.047 52.7083 118.906 53.4323 118.906 54.2031C118.906 54.974 119.047 55.6979 119.328 56.375C119.62 57.0417 120.016 57.6302 120.516 58.1406C121.016 58.6406 121.599 59.0417 122.266 59.3438C122.943 59.6354 123.667 59.7865 124.438 59.7969H131.641V63H124.438C123.229 63 122.094 62.7708 121.031 62.3125C119.969 61.8438 119.042 61.2135 118.25 60.4219C117.469 59.6198 116.849 58.6875 116.391 57.625C115.932 56.5521 115.703 55.4115 115.703 54.2031C115.703 52.9948 115.932 51.8594 116.391 50.7969C116.849 49.7344 117.469 48.8073 118.25 48.0156C119.042 47.2135 119.969 46.5833 121.031 46.125C122.094 45.6562 123.229 45.4167 124.438 45.4062H133.234V39H136.438V63Z" fill="white"/>
<path d="M161.859 63H145.859C145.078 63 144.349 62.8542 143.672 62.5625C142.995 62.2708 142.401 61.875 141.891 61.375C141.38 60.8646 140.979 60.2708 140.688 59.5938C140.396 58.9062 140.25 58.1771 140.25 57.4062C140.25 56.625 140.396 55.8958 140.688 55.2188C140.979 54.5417 141.38 53.9479 141.891 53.4375C142.401 52.9271 142.995 52.526 143.672 52.2344C144.349 51.9427 145.078 51.7969 145.859 51.7969H157.047V55H145.859C145.526 55 145.214 55.0677 144.922 55.2031C144.63 55.3281 144.375 55.5 144.156 55.7188C143.938 55.9375 143.766 56.1927 143.641 56.4844C143.516 56.776 143.453 57.0833 143.453 57.4062C143.453 57.7396 143.516 58.0521 143.641 58.3438C143.766 58.625 143.938 58.875 144.156 59.0938C144.375 59.3125 144.63 59.4844 144.922 59.6094C145.214 59.7344 145.526 59.7969 145.859 59.7969H158.656V51C158.656 50.6771 158.589 50.3698 158.453 50.0781C158.328 49.7865 158.156 49.5312 157.938 49.3125C157.719 49.0938 157.464 48.9219 157.172 48.7969C156.88 48.6615 156.573 48.5938 156.25 48.5938H143.453V45.4062H156.25C157.031 45.4062 157.76 45.5521 158.438 45.8438C159.115 46.1354 159.708 46.5365 160.219 47.0469C160.729 47.5469 161.13 48.1354 161.422 48.8125C161.714 49.4896 161.859 50.2188 161.859 51V63Z" fill="white"/>
<path d="M170.016 63H166.812V45.4062H178.812C180.021 45.4062 181.156 45.6406 182.219 46.1094C183.281 46.5677 184.208 47.1979 185 48C185.792 48.7917 186.417 49.724 186.875 50.7969C187.333 51.8594 187.562 52.9948 187.562 54.2031V63H184.359V54.2031C184.359 53.4323 184.214 52.7083 183.922 52.0312C183.63 51.3542 183.234 50.7656 182.734 50.2656C182.234 49.7552 181.646 49.3542 180.969 49.0625C180.302 48.7604 179.583 48.6042 178.812 48.5938H170.016V63Z" fill="white"/>
<path d="M207.906 63H197.438C196.229 62.9896 195.094 62.7552 194.031 62.2969C192.969 61.8281 192.042 61.1979 191.25 60.4062C190.469 59.6042 189.849 58.6719 189.391 57.6094C188.932 56.5469 188.703 55.4115 188.703 54.2031C188.703 52.9948 188.932 51.8594 189.391 50.7969C189.849 49.724 190.469 48.7917 191.25 48C192.042 47.1979 192.969 46.5677 194.031 46.1094C195.094 45.6406 196.229 45.4062 197.438 45.4062H207.906V48.5938H197.438C196.667 48.6042 195.943 48.7604 195.266 49.0625C194.599 49.3542 194.016 49.7552 193.516 50.2656C193.016 50.7656 192.62 51.3542 192.328 52.0312C192.047 52.7083 191.906 53.4323 191.906 54.2031C191.906 54.974 192.047 55.6979 192.328 56.375C192.62 57.0521 193.016 57.6458 193.516 58.1562C194.016 58.6562 194.599 59.0573 195.266 59.3594C195.943 59.651 196.667 59.7969 197.438 59.7969H207.906V63Z" fill="white"/>
</svg>
